<svg width="85" height="100" viewBox="0 0 85 100" fill="none" xmlns="http://www.w3.org/2000/svg">
<mask id="path-1-inside-1_79_1521" fill="white">
<path fill-rule="evenodd" clip-rule="evenodd" d="M12 0H73C73 7.25687 78.1533 13.3101 85 14.6999V50V85.3001C78.1533 86.6899 73 92.7431 73 100H12C12 92.7431 6.84672 86.6899 0 85.3001V50V14.6999C6.84672 13.3101 12 7.25687 12 0Z"/>
</mask>
<path fill-rule="evenodd" clip-rule="evenodd" d="M12 0H73C73 7.25687 78.1533 13.3101 85 14.6999V50V85.3001C78.1533 86.6899 73 92.7431 73 100H12C12 92.7431 6.84672 86.6899 0 85.3001V50V14.6999C6.84672 13.3101 12 7.25687 12 0Z" fill="white"/>
<path d="M73 0H75V-2H73V0ZM12 0V-2H10V0H12ZM85 14.6999H87V13.0651L85.3979 12.7399L85 14.6999ZM85 85.3001L85.3979 87.2601L87 86.9349V85.3001H85ZM73 100V102H75V100H73ZM12 100H10V102H12V100ZM0 85.3001H-2V86.9349L-0.397864 87.2601L0 85.3001ZM0 14.6999L-0.397864 12.7399L-2 13.0651V14.6999H0ZM73 -2H12V2H73V-2ZM85.3979 12.7399C79.4649 11.5356 75 6.28696 75 0H71C71 8.22678 76.8417 15.0847 84.6021 16.66L85.3979 12.7399ZM87 50V14.6999H83V50H87ZM83 50V85.3001H87V50H83ZM84.6021 83.34C76.8417 84.9153 71 91.7732 71 100H75C75 93.713 79.4649 88.4644 85.3979 87.2601L84.6021 83.34ZM73 98H12V102H73V98ZM14 100C14 91.7732 8.15832 84.9153 0.397864 83.34L-0.397864 87.2601C5.53512 88.4644 10 93.713 10 100H14ZM2 85.3001V50H-2V85.3001H2ZM-2 14.6999V50H2V14.6999H-2ZM10 0C10 6.28696 5.53512 11.5356 -0.397864 12.7399L0.397864 16.66C8.15832 15.0847 14 8.22678 14 0H10Z" fill="#C9A885" mask="url(#path-1-inside-1_79_1521)"/>
</svg>
